# xmcd
#
# Track frame offsets:
#	150
#	11265
#	25467
#	37295
#	54205
#	65395
#	78980
#	89280
#	101252
#	116805
#
# Disc length: 1732 seconds
# Revision: 2
# Processed by: cddbd v1.5.2PL0 Copyright (c) Steve Scherf et al.
# Submitted via: dBpowerAMP V12.0
#
DISCID=7506c20a
DTITLE=Conway Twitty - Greatest Hits [Dominion]
DYEAR=1982
DGENRE=Country
TTITLE0=Hello Darlin'
TTITLE1=You've Never Been This Far Before
TTITLE2=Linda on My Mind
TTITLE3=Don't Cry Joni
TTITLE4=It's Only Make Believe
TTITLE5=The Games That Daddies Play
TTITLE6=(I Can't Believe) She Gives It All to Me
TTITLE7=She Needs Someone to Hold Her (When She Cries)
TTITLE8=Touch the Hand
TTITLE9=After All the Good Is Gone
EXTD=
EXTT0=
EXTT1=
EXTT2=
EXTT3=
EXTT4=
EXTT5=
EXTT6=
EXTT7=
EXTT8=
EXTT9=
PLAYORDER=
